<svg fill="#000000" xmlns="http://www.w3.org/2000/svg"  viewBox="0 0 64 64" width="64px" height="64px"><path d="M 11.072266 5 C 7.7299369 5 5 7.7299369 5 11.072266 L 5 52.927734 C 5 56.270063 7.7299369 59 11.072266 59 L 52.927734 59 C 56.270063 59 59 56.270063 59 52.927734 L 59 11.072266 C 59 7.7299369 56.270063 5 52.927734 5 L 11.072266 5 z M 11.072266 7 L 52.927734 7 C 55.189406 7 57 8.8105936 57 11.072266 L 57 52.927734 C 57 55.189406 55.189406 57 52.927734 57 L 11.072266 57 C 8.8105936 57 7 55.189406 7 52.927734 L 7 11.072266 C 7 8.8105936 8.8105936 7 11.072266 7 z M 12 10 C 11.449 10 11 10.445 11 11 L 11 13 C 11 13.555 11.449 14 12 14 C 12.551 14 13 13.555 13 13 L 13 11 C 13 10.445 12.551 10 12 10 z M 17 10 C 16.449 10 16 10.445 16 11 L 16 13 C 16 13.555 16.449 14 17 14 C 17.551 14 18 13.555 18 13 L 18 11 C 18 10.445 17.551 10 17 10 z M 22 10 C 21.449 10 21 10.445 21 11 L 21 13 C 21 13.555 21.449 14 22 14 C 22.551 14 23 13.555 23 13 L 23 11 C 23 10.445 22.551 10 22 10 z M 27 10 C 26.449 10 26 10.445 26 11 L 26 13 C 26 13.555 26.449 14 27 14 C 27.551 14 28 13.555 28 13 L 28 11 C 28 10.445 27.551 10 27 10 z M 32 10 C 31.449 10 31 10.445 31 11 L 31 13 C 31 13.555 31.449 14 32 14 C 32.551 14 33 13.555 33 13 L 33 11 C 33 10.445 32.551 10 32 10 z M 37 10 C 36.449 10 36 10.445 36 11 L 36 13 C 36 13.555 36.449 14 37 14 C 37.551 14 38 13.555 38 13 L 38 11 C 38 10.445 37.551 10 37 10 z M 42 10 C 41.449 10 41 10.445 41 11 L 41 13 C 41 13.555 41.449 14 42 14 C 42.551 14 43 13.555 43 13 L 43 11 C 43 10.445 42.551 10 42 10 z M 47 10 C 46.449 10 46 10.445 46 11 L 46 13 C 46 13.555 46.449 14 47 14 C 47.551 14 48 13.555 48 13 L 48 11 C 48 10.445 47.551 10 47 10 z M 52 10 C 51.449 10 51 10.445 51 11 L 51 13 C 51 13.555 51.449 14 52 14 C 52.551 14 53 13.555 53 13 L 53 11 C 53 10.445 52.551 10 52 10 z M 33 19 A 1.0001 1.0001 0 0 0 32 20 L 32 39 C 32 41.216061 30.216061 43 28 43 C 25.783939 43 24 41.216061 24 39 C 24 36.783939 25.783939 35 28 35 C 28.276171 35 28.537907 35.028481 28.796875 35.082031 A 1.0001 1.0001 0 0 0 30 34.101562 L 30 30.058594 A 1.0001 1.0001 0 0 0 29.109375 29.064453 C 28.754546 29.025508 28.385098 29 28 29 C 22.493207 29 18 33.493207 18 39 C 18 44.506793 22.493207 49 28 49 C 33.506793 49 38 44.506793 38 39 L 38 29.630859 C 39.517196 30.426919 41.170077 31 43 31 C 43.745034 31 44.482823 30.92232 45.205078 30.771484 A 1.0001 1.0001 0 0 0 46 29.792969 L 46 25.632812 A 1.0001 1.0001 0 0 0 44.664062 24.691406 C 44.107397 24.889907 43.550472 25 43 25 C 40.233158 25 38 22.766842 38 20 A 1.0001 1.0001 0 0 0 37 19 L 33 19 z M 34 21 L 36.203125 21 C 36.710172 24.360977 39.502959 27 43 27 C 43.34994 27 43.663479 26.873156 44 26.818359 L 44 28.896484 C 43.667045 28.935027 43.338163 29 43 29 C 40.970194 29 39.115198 28.321382 37.601562 27.181641 A 1.0001 1.0001 0 0 0 36 27.980469 L 36 39 C 36 43.423207 32.423207 47 28 47 C 23.576793 47 20 43.423207 20 39 C 20 34.576793 23.576793 31 28 31 L 28 33 C 24.700061 33 22 35.700061 22 39 C 22 42.299939 24.700061 45 28 45 C 31.299939 45 34 42.299939 34 39 L 34 21 z"/></svg>